<svg viewBox="0 0 440 300" xmlns="http://www.w3.org/2000/svg">
  <defs>
    <linearGradient id="gold" x1="0" y1="0" x2="0" y2="1">
      <stop offset="0" stop-color="#ffe79a"/>
      <stop offset="0.5" stop-color="#f6c238"/>
      <stop offset="1" stop-color="#c8901a"/>
    </linearGradient>
    <linearGradient id="goldFlat" x1="0" y1="0" x2="0" y2="1">
      <stop offset="0" stop-color="#ffd75e"/>
      <stop offset="1" stop-color="#e0a423"/>
    </linearGradient>
    <linearGradient id="navy" x1="0" y1="0" x2="0" y2="1">
      <stop offset="0" stop-color="#2a3f73"/>
      <stop offset="1" stop-color="#141f44"/>
    </linearGradient>
    <linearGradient id="tile" x1="0" y1="0" x2="0" y2="1">
      <stop offset="0" stop-color="#fbf4dd"/>
      <stop offset="1" stop-color="#e8d9ad"/>
    </linearGradient>
  </defs>

  <g stroke="#0d1530" stroke-width="2.4" stroke-linejoin="round">
    <rect x="156" y="118" width="20" height="20" rx="3" fill="url(#tile)" opacity="0.55"/>
    <rect x="180" y="100" width="20" height="20" rx="3" fill="url(#tile)" opacity="0.45"/>
    <rect x="262" y="100" width="20" height="20" rx="3" fill="url(#tile)" opacity="0.45"/>
    <rect x="290" y="118" width="20" height="20" rx="3" fill="url(#tile)" opacity="0.55"/>
  </g>

  <g stroke="#0d1530" stroke-width="3" stroke-linejoin="round">
    <polygon points="220,30 286,52 220,74 154,52" fill="url(#gold)"/>
    <path d="M178 61 v18 q0 14 42 14 q42 0 42 -14 v-18 l-42 14 z" fill="url(#goldFlat)"/>
    <polygon points="220,30 286,52 220,74 154,52" fill="none"/>
    <line x1="286" y1="52" x2="286" y2="86" stroke-linecap="round"/>
    <circle cx="286" cy="90" r="5" fill="url(#gold)"/>
  </g>
  <line x1="220" y1="52" x2="220" y2="74" stroke="#caa23a" stroke-width="1.5" opacity="0.7"/>

  <g stroke="#0d1530" stroke-width="2.6" stroke-linejoin="round">
    <rect x="74" y="93" width="64" height="48" rx="8" fill="url(#gold)"/>
    <text x="106" y="128" text-anchor="middle" font-family="Georgia, 'Times New Roman', serif" font-weight="bold" font-size="34" fill="#1a2750" stroke="none">A+</text>
  </g>

  <g stroke="#0d1530" stroke-width="3" stroke-linejoin="round">
    <rect x="138" y="98" width="164" height="26" rx="5" fill="url(#navy)"/>
  </g>
  <text x="220" y="118" text-anchor="middle" font-family="Georgia, 'Times New Roman', serif" font-weight="bold" font-size="20" letter-spacing="3" fill="#ffe79a" stroke="none">A.P.</text>

  <text x="220" y="190" text-anchor="middle" font-family="'Arial Black', Impact, sans-serif" font-weight="900" font-size="62" letter-spacing="2" fill="#0d1530" stroke="#0d1530" stroke-width="7" stroke-linejoin="round">HUNT</text>
  <text x="220" y="190" text-anchor="middle" font-family="'Arial Black', Impact, sans-serif" font-weight="900" font-size="62" letter-spacing="2" fill="url(#gold)" stroke="none">HUNT</text>

  <g stroke="#0d1530" stroke-width="2.4" stroke-linejoin="round">
    <circle cx="92" cy="226" r="16" fill="url(#goldFlat)"/>
  </g>
  <text x="92" y="235" text-anchor="middle" font-family="Georgia, 'Times New Roman', serif" font-weight="bold" font-size="26" fill="#1a2750" stroke="none">&amp;</text>

  <g stroke="#0d1530" stroke-width="3" stroke-linejoin="round">
    <rect x="118" y="208" width="248" height="40" rx="8" fill="url(#navy)"/>
  </g>
  <text x="242" y="237" text-anchor="middle" font-family="'Arial Black', Impact, sans-serif" font-weight="900" font-size="30" letter-spacing="3" fill="#ffe79a" stroke="none">CONNECT</text>

  <g stroke="#caa23a" stroke-width="1.6" opacity="0.85">
    <line x1="124" y1="266" x2="316" y2="266"/>
  </g>
  <g fill="url(#goldFlat)" stroke="#0d1530" stroke-width="1.4">
    <rect x="318" y="261" width="11" height="11" rx="2"/>
    <rect x="332" y="261" width="11" height="11" rx="2"/>
    <rect x="346" y="261" width="11" height="11" rx="2"/>
  </g>
</svg>