<svg viewBox="0 0 440 300" xmlns="http://www.w3.org/2000/svg" role="img">
<title>Custom UNO Clone game logo</title>
<desc>A fan of colored numbered cards behind a bold wordmark reading Custom UNO Clone</desc>

<g transform="translate(220 96)">
  <g transform="rotate(-26)">
    <rect x="-26" y="-46" width="52" height="84" rx="9" fill="#e23b2e" stroke="#1a1320" stroke-width="3.5"/>
    <ellipse cx="0" cy="-4" rx="16" ry="26" fill="#ffffff" opacity="0.92" transform="rotate(26)"/>
    <text x="0" y="6" transform="rotate(26)" text-anchor="middle" font-family="Impact, sans-serif" font-size="30" fill="#e23b2e">7</text>
  </g>
  <g transform="rotate(-9)">
    <rect x="-26" y="-50" width="52" height="86" rx="9" fill="#2f8fd6" stroke="#1a1320" stroke-width="3.5"/>
    <ellipse cx="0" cy="-7" rx="16" ry="26" fill="#ffffff" opacity="0.92" transform="rotate(9)"/>
    <text x="0" y="3" transform="rotate(9)" text-anchor="middle" font-family="Impact, sans-serif" font-size="30" fill="#2f8fd6">3</text>
  </g>
  <g transform="rotate(9)">
    <rect x="-26" y="-50" width="52" height="86" rx="9" fill="#39b54a" stroke="#1a1320" stroke-width="3.5"/>
    <ellipse cx="0" cy="-7" rx="16" ry="26" fill="#ffffff" opacity="0.92" transform="rotate(-9)"/>
    <text x="0" y="3" transform="rotate(-9)" text-anchor="middle" font-family="Impact, sans-serif" font-size="30" fill="#39b54a">5</text>
  </g>
  <g transform="rotate(26)">
    <rect x="-26" y="-46" width="52" height="84" rx="9" fill="#f5c518" stroke="#1a1320" stroke-width="3.5"/>
    <g transform="rotate(-26)">
      <ellipse cx="0" cy="-4" rx="16" ry="26" fill="#1a1320"/>
      <path d="M-7 -18 A14 22 0 0 1 7 -18 L7 -16 A11 19 0 0 0 -7 -16 Z" fill="#e23b2e"/>
      <path d="M7 -16 A11 19 0 0 1 7 8 L9 9 A14 22 0 0 0 9 -17 Z" fill="#2f8fd6"/>
      <path d="M7 8 A11 19 0 0 1 -7 8 L-7 10 A14 22 0 0 0 9 9 Z" fill="#f5c518"/>
      <path d="M-7 8 A11 19 0 0 1 -7 -16 L-9 -17 A14 22 0 0 0 -9 9 Z" fill="#39b54a"/>
      <circle cx="0" cy="-4" r="6" fill="#ffffff"/>
    </g>
  </g>
</g>

<text x="221" y="186" text-anchor="middle" font-family="Impact, sans-serif" font-size="34" letter-spacing="1" fill="#1a1320">Custom</text>
<text x="220" y="185" text-anchor="middle" font-family="Impact, sans-serif" font-size="34" letter-spacing="1" fill="#ffffff">Custom</text>

<g>
  <rect x="116" y="200" width="208" height="62" rx="12" fill="#e23b2e" stroke="#1a1320" stroke-width="4"/>
  <rect x="123" y="206" width="194" height="50" rx="8" fill="none" stroke="#ffffff" stroke-width="2.5" opacity="0.85"/>
  <text x="221" y="249" text-anchor="middle" font-family="Impact, sans-serif" font-size="54" letter-spacing="3" fill="#1a1320">UNO</text>
  <text x="220" y="247" text-anchor="middle" font-family="Impact, sans-serif" font-size="54" letter-spacing="3" fill="#f5c518">UNO</text>
</g>

<text x="221" y="288" text-anchor="middle" font-family="Impact, sans-serif" font-size="30" letter-spacing="5" fill="#1a1320">CLONE</text>
<text x="220" y="287" text-anchor="middle" font-family="Impact, sans-serif" font-size="30" letter-spacing="5" fill="#2f8fd6">CLONE</text>
</svg>