<svg viewBox="0 0 440 300" xmlns="http://www.w3.org/2000/svg">
  <defs>
    <linearGradient id="wordFill" x1="0" y1="0" x2="0" y2="1">
      <stop offset="0" stop-color="#fdf6e3"/>
      <stop offset="0.55" stop-color="#f2e6c4"/>
      <stop offset="1" stop-color="#d9c290"/>
    </linearGradient>
    <linearGradient id="redCard" x1="0" y1="0" x2="0" y2="1">
      <stop offset="0" stop-color="#e23b3b"/>
      <stop offset="1" stop-color="#a81818"/>
    </linearGradient>
    <linearGradient id="blkCard" x1="0" y1="0" x2="0" y2="1">
      <stop offset="0" stop-color="#3a3a3a"/>
      <stop offset="1" stop-color="#101010"/>
    </linearGradient>
  </defs>

  <g transform="translate(220 92)">
    <g transform="rotate(-16)">
      <rect x="-44" y="-46" width="80" height="112" rx="9" fill="url(#blkCard)" stroke="#f5ecd6" stroke-width="3"/>
      <text x="-30" y="-22" font-family="Georgia, serif" font-size="20" fill="#cc2222" font-weight="bold" text-anchor="middle">A</text>
      <path d="M-30 -8 a6 6 0 0 1 10 0 a6 6 0 0 1 10 0 q0 7 -10 13 q-10 -6 -10 -13 z" fill="#cc2222"/>
    </g>
    <g transform="rotate(15)">
      <rect x="-36" y="-46" width="80" height="112" rx="9" fill="url(#redCard)" stroke="#f5ecd6" stroke-width="3"/>
      <text x="28" y="58" font-family="Georgia, serif" font-size="20" fill="#1a1a1a" font-weight="bold" text-anchor="middle">A</text>
      <path d="M14 8 L24 -10 L34 8 Z" fill="#1a1a1a"/>
      <rect x="22" y="6" width="4" height="9" fill="#1a1a1a"/>
    </g>

    <g transform="translate(0 6)">
      <ellipse cx="0" cy="0" rx="34" ry="33" fill="#f7efd9" stroke="#1a1a1a" stroke-width="4"/>
      <path d="M-22 22 q22 18 44 0 q-2 12 -22 12 q-20 0 -22 -12 z" fill="#f7efd9" stroke="#1a1a1a" stroke-width="4"/>
      <circle cx="-12" cy="-4" r="8" fill="#1a1a1a"/>
      <circle cx="-9" cy="-6" r="2.4" fill="#f7efd9"/>
      <path d="M5 -7 q9 -8 18 0" fill="none" stroke="#1a1a1a" stroke-width="4" stroke-linecap="round"/>
      <path d="M-13 17 q13 11 26 0" fill="none" stroke="#1a1a1a" stroke-width="3.5" stroke-linecap="round"/>
      <line x1="-7" y1="14" x2="-7" y2="26" stroke="#1a1a1a" stroke-width="2.5"/>
      <line x1="0" y1="13" x2="0" y2="27" stroke="#1a1a1a" stroke-width="2.5"/>
      <line x1="7" y1="14" x2="7" y2="26" stroke="#1a1a1a" stroke-width="2.5"/>
      <path d="M14 -20 l5 -8 l5 8 z" fill="#cc2222"/>
    </g>
  </g>

  <g text-anchor="middle" font-family="Impact, sans-serif" font-weight="bold">
    <text x="222" y="232" font-size="76" fill="#1a1a1a" letter-spacing="1">Shameless</text>
    <text x="220" y="230" font-size="76" fill="#1a1a1a" stroke="#1a1a1a" stroke-width="7" stroke-linejoin="round" letter-spacing="1">Shameless</text>
    <text x="220" y="230" font-size="76" fill="url(#wordFill)" letter-spacing="1">Shameless</text>
  </g>

  <g fill="#cc2222">
    <path d="M150 244 q0 11 5 11 q5 0 5 -11 z"/>
    <path d="M278 244 q0 14 5 14 q5 0 5 -14 z"/>
  </g>

  <text x="222" y="270" text-anchor="middle" font-family="Georgia, serif" font-size="13" letter-spacing="6" fill="#cc2222" font-weight="bold">HOUSE RULES APPLY</text>
</svg>